<svg xmlns="http://www.w3.org/2000/svg" xmlns:xlink="http://www.w3.org/1999/xlink" width="500" zoomAndPan="magnify" viewBox="0 0 375 74.999997" height="100" preserveAspectRatio="xMidYMid meet" version="1.0"><defs><g/></defs><g fill="#242840" fill-opacity="1"><g transform="translate(22.45899, 64.659511)"><g><path d="M 45.734375 -54.375 L 45.734375 -19.3125 C 45.734375 -12.632812 43.929688 -7.582031 40.328125 -4.15625 C 36.734375 -0.726562 31.460938 0.984375 24.515625 0.984375 C 17.578125 0.984375 12.304688 -0.726562 8.703125 -4.15625 C 5.097656 -7.582031 3.296875 -12.632812 3.296875 -19.3125 L 3.296875 -54.375 L 15.6875 -54.375 L 15.6875 -22.9375 C 15.6875 -18.539062 16.378906 -15.484375 17.765625 -13.765625 C 19.148438 -12.054688 21.398438 -11.203125 24.515625 -11.203125 C 27.640625 -11.203125 29.890625 -12.054688 31.265625 -13.765625 C 32.648438 -15.484375 33.34375 -18.539062 33.34375 -22.9375 L 33.34375 -54.375 Z M 45.734375 -54.375 "/></g></g></g><g fill="#242840" fill-opacity="1"><g transform="translate(71.484526, 64.659511)"><g><path d="M 3.953125 0 L 3.953125 -33.8125 L 15.625 -33.8125 L 15.625 -30.25 L 15.75 -30.25 C 18.78125 -33.28125 22.007812 -34.796875 25.4375 -34.796875 C 27.101562 -34.796875 28.757812 -34.578125 30.40625 -34.140625 C 32.0625 -33.703125 33.644531 -33.019531 35.15625 -32.09375 C 36.675781 -31.175781 37.90625 -29.867188 38.84375 -28.171875 C 39.789062 -26.484375 40.265625 -24.519531 40.265625 -22.28125 L 40.265625 0 L 28.609375 0 L 28.609375 -19.109375 C 28.609375 -20.867188 28.046875 -22.40625 26.921875 -23.71875 C 25.796875 -25.039062 24.335938 -25.703125 22.546875 -25.703125 C 20.785156 -25.703125 19.191406 -25.019531 17.765625 -23.65625 C 16.335938 -22.300781 15.625 -20.785156 15.625 -19.109375 L 15.625 0 Z M 3.953125 0 "/></g></g></g><g fill="#242840" fill-opacity="1"><g transform="translate(115.040816, 64.659511)"><g><path d="M 5.078125 -52.65625 C 6.441406 -54.019531 8.066406 -54.703125 9.953125 -54.703125 C 11.835938 -54.703125 13.460938 -54.019531 14.828125 -52.65625 C 16.191406 -51.289062 16.875 -49.664062 16.875 -47.78125 C 16.875 -45.894531 16.191406 -44.269531 14.828125 -42.90625 C 13.460938 -41.539062 11.835938 -40.859375 9.953125 -40.859375 C 8.066406 -40.859375 6.441406 -41.539062 5.078125 -42.90625 C 3.710938 -44.269531 3.03125 -45.894531 3.03125 -47.78125 C 3.03125 -49.664062 3.710938 -51.289062 5.078125 -52.65625 Z M 3.953125 -33.8125 L 3.953125 0 L 15.625 0 L 15.625 -33.8125 Z M 3.953125 -33.8125 "/></g></g></g><g fill="#242840" fill-opacity="1"><g transform="translate(134.940968, 64.659511)"><g><path d="M 42.578125 -33.8125 L 26.5 -17.65625 L 44.15625 0 L 29.125 0 L 15.625 -13.515625 L 15.625 0 L 3.953125 0 L 3.953125 -56.671875 L 15.625 -56.671875 L 15.625 -22.015625 L 27.421875 -33.8125 Z M 42.578125 -33.8125 "/></g></g></g><g fill="#242840" fill-opacity="1"><g transform="translate(177.508844, 64.659511)"><g><path d="M 7.140625 -4.015625 C 3.390625 -7.359375 1.515625 -11.644531 1.515625 -16.875 C 1.515625 -22.101562 3.46875 -26.394531 7.375 -29.75 C 11.289062 -33.113281 16.125 -34.796875 21.875 -34.796875 C 27.539062 -34.796875 32.316406 -33.101562 36.203125 -29.71875 C 40.097656 -26.34375 42.046875 -22.0625 42.046875 -16.875 C 42.046875 -11.6875 40.144531 -7.410156 36.34375 -4.046875 C 32.539062 -0.691406 27.71875 0.984375 21.875 0.984375 C 15.8125 0.984375 10.898438 -0.679688 7.140625 -4.015625 Z M 16.171875 -22.59375 C 14.660156 -21.101562 13.90625 -19.191406 13.90625 -16.859375 C 13.90625 -14.535156 14.628906 -12.640625 16.078125 -11.171875 C 17.523438 -9.703125 19.4375 -8.96875 21.8125 -8.96875 C 24.09375 -8.96875 25.96875 -9.710938 27.4375 -11.203125 C 28.914062 -12.691406 29.65625 -14.582031 29.65625 -16.875 C 29.65625 -19.195312 28.894531 -21.101562 27.375 -22.59375 C 25.863281 -24.09375 24.007812 -24.84375 21.8125 -24.84375 C 19.570312 -24.84375 17.691406 -24.09375 16.171875 -22.59375 Z M 16.171875 -22.59375 "/></g></g></g><g fill="#242840" fill-opacity="1"><g transform="translate(221.065145, 64.659511)"><g><path d="M 3.953125 0 L 3.953125 -33.8125 L 15.625 -33.8125 L 15.625 -30.25 L 15.75 -30.25 C 18.78125 -33.28125 22.007812 -34.796875 25.4375 -34.796875 C 27.101562 -34.796875 28.757812 -34.578125 30.40625 -34.140625 C 32.0625 -33.703125 33.644531 -33.019531 35.15625 -32.09375 C 36.675781 -31.175781 37.90625 -29.867188 38.84375 -28.171875 C 39.789062 -26.484375 40.265625 -24.519531 40.265625 -22.28125 L 40.265625 0 L 28.609375 0 L 28.609375 -19.109375 C 28.609375 -20.867188 28.046875 -22.40625 26.921875 -23.71875 C 25.796875 -25.039062 24.335938 -25.703125 22.546875 -25.703125 C 20.785156 -25.703125 19.191406 -25.019531 17.765625 -23.65625 C 16.335938 -22.300781 15.625 -20.785156 15.625 -19.109375 L 15.625 0 Z M 3.953125 0 "/></g></g></g><g fill="#158e80" fill-opacity="1"><g transform="translate(264.626943, 64.659511)"><g><path d="M 11.46875 -14.109375 C 13.570312 -14.109375 15.359375 -13.367188 16.828125 -11.890625 C 18.304688 -10.421875 19.046875 -8.632812 19.046875 -6.53125 C 19.046875 -4.457031 18.304688 -2.6875 16.828125 -1.21875 C 15.359375 0.25 13.570312 0.984375 11.46875 0.984375 C 9.40625 0.984375 7.632812 0.25 6.15625 -1.21875 C 4.6875 -2.6875 3.953125 -4.457031 3.953125 -6.53125 C 3.953125 -8.632812 4.6875 -10.421875 6.15625 -11.890625 C 7.632812 -13.367188 9.40625 -14.109375 11.46875 -14.109375 Z M 11.46875 -14.109375 "/></g></g></g><g fill="#158e80" fill-opacity="1"><g transform="translate(287.624141, 64.659511)"><g><path d="M 6.25 -4.1875 C 3.09375 -7.632812 1.515625 -11.863281 1.515625 -16.875 C 1.515625 -21.882812 3.09375 -26.125 6.25 -29.59375 C 9.414062 -33.0625 13.441406 -34.796875 18.328125 -34.796875 C 22.804688 -34.796875 26.492188 -33.390625 29.390625 -30.578125 L 29.390625 -33.8125 L 41.0625 -33.8125 L 41.0625 0 L 29.53125 0 L 29.53125 -3.828125 L 29.390625 -3.828125 C 26.492188 -0.617188 22.804688 0.984375 18.328125 0.984375 C 13.441406 0.984375 9.414062 -0.738281 6.25 -4.1875 Z M 16.171875 -22.59375 C 14.660156 -21.101562 13.90625 -19.191406 13.90625 -16.859375 C 13.90625 -14.535156 14.628906 -12.640625 16.078125 -11.171875 C 17.523438 -9.703125 19.4375 -8.96875 21.8125 -8.96875 C 24.09375 -8.96875 25.96875 -9.710938 27.4375 -11.203125 C 28.914062 -12.691406 29.65625 -14.582031 29.65625 -16.875 C 29.65625 -19.195312 28.894531 -21.101562 27.375 -22.59375 C 25.863281 -24.09375 24.007812 -24.84375 21.8125 -24.84375 C 19.570312 -24.84375 17.691406 -24.09375 16.171875 -22.59375 Z M 16.171875 -22.59375 "/></g></g></g><g fill="#158e80" fill-opacity="1"><g transform="translate(332.630111, 64.659511)"><g><path d="M 5.078125 -52.65625 C 6.441406 -54.019531 8.066406 -54.703125 9.953125 -54.703125 C 11.835938 -54.703125 13.460938 -54.019531 14.828125 -52.65625 C 16.191406 -51.289062 16.875 -49.664062 16.875 -47.78125 C 16.875 -45.894531 16.191406 -44.269531 14.828125 -42.90625 C 13.460938 -41.539062 11.835938 -40.859375 9.953125 -40.859375 C 8.066406 -40.859375 6.441406 -41.539062 5.078125 -42.90625 C 3.710938 -44.269531 3.03125 -45.894531 3.03125 -47.78125 C 3.03125 -49.664062 3.710938 -51.289062 5.078125 -52.65625 Z M 3.953125 -33.8125 L 3.953125 0 L 15.625 0 L 15.625 -33.8125 Z M 3.953125 -33.8125 "/></g></g></g></svg>